name processed_emg_signals
nRows=57
nColumns=7
 
endheader
time	LGLTMED	LRF	LADDLONG	LST	LTA	LGM
0.0	0.1345524365651225	0.0737438826063379	0.2005887738021457	0.0318112889530773	0.009487934989638	0.0050605487224161
0.001	0.1442935311681679	0.088063812191905	0.1746766164936435	0.0343646907899894	0.008442958020408	0.0093258599537841
0.002	0.1540580975155271	0.1023779789960289	0.1488809883900635	0.0369234747459767	0.007385520979617	0.0136005400944057
0.003	0.1638400756523157	0.1166767577878233	0.1232171516148435	0.0394859623201879	0.0063158144411478	0.0178826341919517
0.004	0.1736333813732355	0.1309504928435137	0.0977002302295651	0.0420504647665478	0.0052340320414497	0.0221701997276214
0.005	0.1834319154950854	0.1451895104477589	0.072345191303454	0.0446152854685678	0.0041403702710776	0.0264613097714597
0.006	0.193229573160081	0.1593841314036789	0.0471668263273018	0.0471787223263461	0.003035028279898	0.0307540561090186
0.007	0.2030202531408895	0.1735246835177614	0.0221797330082371	0.0497390701482576	0.0019182076972735	0.035046552331149
0.008	0.2127978671199066	0.1876015140275493	0.0026017025190012	0.0522946230407974	0.0007901124684537	0.039336936879214
0.009000000000000001	0.2225563489171089	0.201605001941233	0.0271633230302071	0.0548436767898584	0.0003490512917694	0.043623376038574
0.01	0.2322896636423947	0.215525570260144	0.0514912170680107	0.0573845312277084	0.0014990754272053	0.0479040668734841
0.011	0.2419918167501877	0.2293536980572904	0.0755717352867617	0.0599154925799906	0.0026597498494299	0.0521772400969584
0.012	0.2516568629747122	0.2430799323870273	0.099391506259311	0.062434875787622	0.0038308626273595	0.056441162869315
0.013000000000000001	0.2612789151261525	0.2566949000027925	0.1229374517205101	0.0649410067988486	0.0050122000567567	0.0606941415193807
0.014	0.2708521527281937	0.2701893188617899	0.1461968012241796	0.0674322248268299	0.0062035467093859	0.0649345241825695
0.015	0.2803708304789303	0.2835540093973742	0.1691571061908195	0.0699068845683912	0.0074046854616695	0.069160703350526
0.016	0.2898292865176856	0.2967799055419124	0.1918062533251554	0.0723633583797693	0.0086153975028765	0.0733711183271649
0.017	0.2992219504807511	0.3098580654847383	0.2141324773836201	0.0748000384052662	0.0098354623229953	0.0775642575862322
0.018000000000000002	0.3085433513294154	0.3227796821515064	0.2361243732747098	0.0772153386549952	0.011064657680631	0.0817386610259084
0.019	0.3177881249331556	0.33553609339268	0.2577709074764737	0.0796076970282748	0.0123027595513237	0.0858929221161061
0.02	0.3269510213914229	0.3481187918701239	0.2790614287589246	0.0819755772792497	0.0135495420568598	0.0900256899345596
0.021	0.3360269120769988	0.3605194346321591	0.2999856781995954	0.0843174709219784	0.0148047773762652	0.094135671087941
0.022	0.3450107963839335	0.3727298523684297	0.3205337984837577	0.0866318990720533	0.0160682356392442	0.0982216315142157
0.023	0.3538978081634636	0.3847420583370035	0.3406963424825898	0.0889174142225193	0.0173396848029876	0.1022823981624801
0.024	0.3626832218312367	0.396548256958612	0.3604642811057107	0.0911726019522883	0.0186188905133477	0.1063168605461736
0.025	0.3713624581298714	0.4081408520748609	0.3798290104269324	0.0933960825657384	0.0199056159514343	0.110323972165642
0.026000000000000002	0.3799310895312623	0.4195124548694649	0.3987823580851428	0.0955865126629725	0.0211996216667862	0.1143027517959869
0.027	0.388384845264179	0.4306558914535228	0.4173165889652161	0.0977425866404202	0.0225006653983066	0.1182522846364948
0.028	0.3967196159536561	0.4415642101170161	0.4354244101659043	0.0998630381218517	0.023808501884226	0.1221717233186615
0.029	0.4049314578596807	0.4522306882493254	0.4530989752634283	0.1019466413196298	0.0251228826623504	0.1260602887703768
0.03	0.4130165967055815	0.4626488389322365	0.4703338878799692	0.1039922123263147	0.0264435558619452	0.1299172709345468
0.031	0.4209714310879727	0.4728124172090028	0.4871232045668536	0.1059986103362286	0.02777026598865	0.1337420293408053
0.032	0.4287925354638597	0.482715426033634	0.5034614370118943	0.1079647387969679	0.0291027537037616	0.1375339935290909
0.033	0.4364766627119464	0.4923521219044631	0.5193435535812321	0.1098895464906359	0.0304407555993164	0.1412926633237541
0.034	0.4440207462678565	0.5017170201859034	0.534764980207194	0.1117720285448499	0.0317840039703253	0.1450176089569465
0.035	0.4514219018342026	0.5108049001218327	0.5497216006345674	0.1136112273735588	0.0331322265855452	0.1487084710400896
0.036000000000000004	0.4586774286670815	0.519610809542852	0.5642097560388605	0.115406233547808	0.034485146458163	0.1523649603825885
0.037	0.4657848104416112	0.5281300692685181	0.5782262440292123	0.1171561865964048	0.0358424816177019	0.1559868576573251
0.038	0.4727417156983454	0.5363582772044376	0.5917683170500951	0.1188602757364407	0.0372039448844203	0.1595740129128561
0.039	0.479545997872579	0.5442913121332698	0.6048336801946398	0.1205177405333095	0.0385692436474177	0.1631263449330438
0.04	0.4861956949079293	0.5519253371976032	0.6174204884441812	0.1221278714899595	0.0399380796476442	0.1666438404451795
0.041	0.4926890284565073	0.5592568030717713	0.6295273433477139	0.1236900105646735	0.0413101487669459	0.1701265531782508
0.042	0.4990244026699651	0.5662824508186786	0.6411532891557608	0.1252035516169656	0.0426851408242735	0.1735746027734529
0.043000000000000003	0.5052004025887421	0.5729993144267015	0.6522978084230838	0.126667940780685	0.04406273938009	0.1769881735497416
0.044	0.5112157921404259	0.5794047230208501	0.6629608170952659	0.128082676763954	0.0454426215499045	0.1803675131281578
0.045	0.5170695117613182	0.5854963027419421	0.6731426590938322	0.12944731107521	0.0468244578277551	0.1837129309198346
0.046	0.5227606756578638	0.5912719782872081	0.6828441004141287	0.130761448175114	0.0482079119203335	0.187024796483504
0.047	0.528288568725733	0.5967299741056585	0.6920663227503606	0.1320247455539338	0.0495926405923671	0.1903035377591525
0.048	0.5336526431445244	0.6018688152411269	0.7008109166624168	0.133236913734394	0.0509782935237981	0.1935496391848447
0.049	0.5388525146658019	0.6066873278153232	0.7090798742992891	0.1343977161999203	0.0523645131792711	0.1967636397039697
0.05	0.5438879586118157	0.6111846391437372	0.7168755816944995	0.135506969248545	0.053750934690351	0.1999461306701015
0.051000000000000004	0.5487589056021435	0.6153601774770479	0.7242008106504723	0.1365645417727386	0.0551371857508179	0.2030977536565372
0.052000000000000005	0.5534654370263943	0.6192136713619701	0.7310587102289108	0.137570354965789	0.0565228865253441	0.2062191981772426
0.053	0.558007780282453	0.6227451486161651	0.7374527978663874	0.1385243819555015	0.0579076495717937	0.2093111993256146
0.054	0.5623863038011784	0.6259549349142058	0.7433869501342598	0.1394266473661946	0.0592910797773693	0.2123745353369175
0.055	0.5666015118805438	0.62884365198329	0.7488653931644639	0.140277226810222	0.0606727743086975	0.2154100250800123
0.056	0.5706540393533728	0.6314122154099293	0.7538926927622313	0.1410762463104166	0.0620523225759705	0.2184185254836372
